{
  "accessors": [
    {
      "name": "sofa a_1_0_positions",
      "componentType": 5126,
      "count": 1698,
      "min": [
        0,
        1.7763600157738027e-15,
        7.96796989440918
      ],
      "max": [
        105.5,
        38.047401428222656,
        31.50349998474121
      ],
      "type": "VEC3",
      "bufferView": 0,
      "byteOffset": 0
    },
    {
      "name": "sofa a_1_0_normals",
      "componentType": 5126,
      "count": 1698,
      "min": [
        -1,
        -1,
        -1
      ],
      "max": [
        1,
        1,
        1
      ],
      "type": "VEC3",
      "bufferView": 1,
      "byteOffset": 0
    },
    {
      "name": "sofa a_1_0_texcoords",
      "componentType": 5126,
      "count": 1698,
      "min": [
        -0.7256379723548889,
        -0.01131999958306551
      ],
      "max": [
        1.000849962234497,
        0.9809781908988953
      ],
      "type": "VEC2",
      "bufferView": 2,
      "byteOffset": 0
    },
    {
      "name": "sofa a_1_0_indices",
      "componentType": 5123,
      "count": 1698,
      "min": [
        0
      ],
      "max": [
        1697
      ],
      "type": "SCALAR",
      "bufferView": 3,
      "byteOffset": 0
    },
    {
      "name": "sofa a_1_1_positions",
      "componentType": 5126,
      "count": 1482,
      "min": [
        0,
        1.7763600157738027e-15,
        0
      ],
      "max": [
        105.5,
        38.118900299072266,
        31.50349998474121
      ],
      "type": "VEC3",
      "bufferView": 0,
      "byteOffset": 20376
    },
    {
      "name": "sofa a_1_1_normals",
      "componentType": 5126,
      "count": 1482,
      "min": [
        -1,
        -1,
        -1
      ],
      "max": [
        1,
        1,
        1
      ],
      "type": "VEC3",
      "bufferView": 1,
      "byteOffset": 20376
    },
    {
      "name": "sofa a_1_1_indices",
      "componentType": 5123,
      "count": 1482,
      "min": [
        0
      ],
      "max": [
        1481
      ],
      "type": "SCALAR",
      "bufferView": 3,
      "byteOffset": 3396
    }
  ],
  "asset": {
    "generator": "obj2gltf",
    "version": "2.0"
  },
  "buffers": [
    {
      "name": "557d878e747fa35db161f36d4e309050",
      "byteLength": 139848,
      "uri": "data:application/octet-stream;base64,"
    }
  ],
  "bufferViews": [
    {
      "name": "bufferView_0",
      "buffer": 0,
      "byteLength": 38160,
      "byteOffset": 0,
      "byteStride": 12,
      "target": 34962
    },
    {
      "name": "bufferView_1",
      "buffer": 0,
      "byteLength": 38160,
      "byteOffset": 38160,
      "byteStride": 12,
      "target": 34962
    },
    {
      "name": "bufferView_2",
      "buffer": 0,
      "byteLength": 13584,
      "byteOffset": 76320,
      "byteStride": 8,
      "target": 34962
    },
    {
      "name": "bufferView_3",
      "buffer": 0,
      "byteLength": 6360,
      "byteOffset": 89904,
      "target": 34963
    },
    {
      "buffer": 0,
      "byteOffset": 96264,
      "byteLength": 43584
    }
  ],
  "images": [
    {
      "name": "643b3f97e3d99855",
      "mimeType": "image/jpeg",
      "bufferView": 4
    }
  ],
  "materials": [
    {
      "name": "m0",
      "pbrMetallicRoughness": {
        "baseColorTexture": {
          "index": 0
        },
        "baseColorFactor": [
          1,
          1,
          1,
          1
        ],
        "metallicFactor": 0,
        "roughnessFactor": 0.999
      },
      "emissiveFactor": [
        0,
        0,
        0
      ],
      "alphaMode": "OPAQUE",
      "doubleSided": false
    },
    {
      "name": "m1",
      "pbrMetallicRoughness": {
        "baseColorFactor": [
          0,
          0,
          0,
          1
        ],
        "metallicFactor": 0,
        "roughnessFactor": 0.999
      },
      "emissiveFactor": [
        0,
        0,
        0
      ],
      "alphaMode": "OPAQUE",
      "doubleSided": false
    }
  ],
  "meshes": [
    {
      "name": "sofa a_1",
      "primitives": [
        {
          "attributes": {
            "POSITION": 0,
            "NORMAL": 1,
            "TEXCOORD_0": 2
          },
          "indices": 3,
          "material": 0,
          "mode": 4
        },
        {
          "attributes": {
            "POSITION": 4,
            "NORMAL": 5
          },
          "indices": 6,
          "material": 1,
          "mode": 4
        }
      ]
    }
  ],
  "nodes": [
    {
      "name": "sofa a",
      "mesh": 0
    }
  ],
  "samplers": [
    {
      "magFilter": 9729,
      "minFilter": 9986,
      "wrapS": 10497,
      "wrapT": 10497
    }
  ],
  "scene": 0,
  "scenes": [
    {
      "nodes": [
        0
      ]
    }
  ],
  "textures": [
    {
      "name": "643b3f97e3d99855",
      "sampler": 0,
      "source": 0
    }
  ]
}
