{
  "accessors": [
    {
      "name": "round coffee table by smart furniture  r      f_1_0_positions",
      "componentType": 5126,
      "count": 6552,
      "min": [
        0,
        0,
        0
      ],
      "max": [
        36,
        36,
        19.25
      ],
      "type": "VEC3",
      "bufferView": 0,
      "byteOffset": 0
    },
    {
      "name": "round coffee table by smart furniture  r      f_1_0_normals",
      "componentType": 5126,
      "count": 6552,
      "min": [
        -1,
        -1,
        -1
      ],
      "max": [
        1,
        1,
        1
      ],
      "type": "VEC3",
      "bufferView": 1,
      "byteOffset": 0
    },
    {
      "name": "round coffee table by smart furniture  r      f_1_0_texcoords",
      "componentType": 5126,
      "count": 6552,
      "min": [
        -1,
        -0.09769999980926514
      ],
      "max": [
        1,
        1
      ],
      "type": "VEC2",
      "bufferView": 2,
      "byteOffset": 0
    },
    {
      "name": "round coffee table by smart furniture  r      f_1_0_indices",
      "componentType": 5123,
      "count": 6552,
      "min": [
        0
      ],
      "max": [
        6551
      ],
      "type": "SCALAR",
      "bufferView": 3,
      "byteOffset": 0
    },
    {
      "name": "round coffee table by smart furniture  r      f_1_1_positions",
      "componentType": 5126,
      "count": 384,
      "min": [
        0.012278099544346333,
        0.012277999892830849,
        0.6200000047683716
      ],
      "max": [
        35.987701416015625,
        35.987701416015625,
        18.6200008392334
      ],
      "type": "VEC3",
      "bufferView": 0,
      "byteOffset": 78624
    },
    {
      "name": "round coffee table by smart furniture  r      f_1_1_normals",
      "componentType": 5126,
      "count": 384,
      "min": [
        -1,
        -1,
        -1
      ],
      "max": [
        1,
        1,
        1
      ],
      "type": "VEC3",
      "bufferView": 1,
      "byteOffset": 78624
    },
    {
      "name": "round coffee table by smart furniture  r      f_1_1_indices",
      "componentType": 5123,
      "count": 384,
      "min": [
        0
      ],
      "max": [
        383
      ],
      "type": "SCALAR",
      "bufferView": 3,
      "byteOffset": 13104
    }
  ],
  "asset": {
    "generator": "obj2gltf",
    "version": "2.0"
  },
  "buffers": [
    {
      "name": "36821105af341539d810b14a81e12eca",
      "byteLength": 238072,
      "uri": "data:application/octet-stream;base64,"
    }
  ],
  "bufferViews": [
    {
      "name": "bufferView_0",
      "buffer": 0,
      "byteLength": 83232,
      "byteOffset": 0,
      "byteStride": 12,
      "target": 34962
    },
    {
      "name": "bufferView_1",
      "buffer": 0,
      "byteLength": 83232,
      "byteOffset": 83232,
      "byteStride": 12,
      "target": 34962
    },
    {
      "name": "bufferView_2",
      "buffer": 0,
      "byteLength": 52416,
      "byteOffset": 166464,
      "byteStride": 8,
      "target": 34962
    },
    {
      "name": "bufferView_3",
      "buffer": 0,
      "byteLength": 13872,
      "byteOffset": 218880,
      "target": 34963
    },
    {
      "buffer": 0,
      "byteOffset": 232752,
      "byteLength": 5320
    }
  ],
  "images": [
    {
      "name": "f8a13d7cc4ad30b3",
      "mimeType": "image/jpeg",
      "bufferView": 4
    }
  ],
  "materials": [
    {
      "name": "m0",
      "pbrMetallicRoughness": {
        "baseColorTexture": {
          "index": 0
        },
        "baseColorFactor": [
          1,
          1,
          1,
          1
        ],
        "metallicFactor": 0,
        "roughnessFactor": 0.999
      },
      "emissiveFactor": [
        0,
        0,
        0
      ],
      "alphaMode": "OPAQUE",
      "doubleSided": false
    },
    {
      "name": "m1",
      "pbrMetallicRoughness": {
        "baseColorFactor": [
          1,
          1,
          1,
          1
        ],
        "metallicFactor": 0,
        "roughnessFactor": 0.999
      },
      "emissiveFactor": [
        0,
        0,
        0
      ],
      "alphaMode": "OPAQUE",
      "doubleSided": false
    }
  ],
  "meshes": [
    {
      "name": "round coffee table by smart furniture  r      f_1",
      "primitives": [
        {
          "attributes": {
            "POSITION": 0,
            "NORMAL": 1,
            "TEXCOORD_0": 2
          },
          "indices": 3,
          "material": 0,
          "mode": 4
        },
        {
          "attributes": {
            "POSITION": 4,
            "NORMAL": 5
          },
          "indices": 6,
          "material": 1,
          "mode": 4
        }
      ]
    }
  ],
  "nodes": [
    {
      "name": "round coffee table by smart furniture  r      f",
      "mesh": 0
    }
  ],
  "samplers": [
    {
      "magFilter": 9729,
      "minFilter": 9986,
      "wrapS": 10497,
      "wrapT": 10497
    }
  ],
  "scene": 0,
  "scenes": [
    {
      "nodes": [
        0
      ]
    }
  ],
  "textures": [
    {
      "name": "f8a13d7cc4ad30b3",
      "sampler": 0,
      "source": 0
    }
  ]
}
